<svg width="34" height="34" viewBox="0 0 34 34" fill="none" xmlns="http://www.w3.org/2000/svg">
<path d="M17 3.1875C14.2682 3.1875 11.5976 3.99759 9.32619 5.51533C7.05474 7.03306 5.28436 9.19028 4.23892 11.7142C3.19348 14.2381 2.91995 17.0153 3.45291 19.6947C3.98587 22.374 5.30138 24.8352 7.23309 26.7669C9.16481 28.6986 11.626 30.0141 14.3053 30.5471C16.9847 31.0801 19.7619 30.8065 22.2858 29.7611C24.8097 28.7157 26.9669 26.9453 28.4847 24.6738C30.0024 22.4024 30.8125 19.7319 30.8125 17C30.8086 13.3379 29.3522 9.82687 26.7626 7.23736C24.1731 4.64785 20.6621 3.19137 17 3.1875ZM23.0642 17.7517L18.8142 22.0017C18.6149 22.2011 18.3445 22.3131 18.0625 22.3131C17.7806 22.3131 17.5102 22.2011 17.3108 22.0017C17.1114 21.8024 16.9994 21.5319 16.9994 21.25C16.9994 20.9681 17.1114 20.6976 17.3108 20.4983L19.7479 18.0625H11.6875C11.4057 18.0625 11.1355 17.9506 10.9362 17.7513C10.7369 17.552 10.625 17.2818 10.625 17C10.625 16.7182 10.7369 16.448 10.9362 16.2487C11.1355 16.0494 11.4057 15.9375 11.6875 15.9375H19.7479L17.3108 13.5017C17.1114 13.3024 16.9994 13.0319 16.9994 12.75C16.9994 12.4681 17.1114 12.1976 17.3108 11.9983C17.5102 11.7989 17.7806 11.6869 18.0625 11.6869C18.3445 11.6869 18.6149 11.7989 18.8142 11.9983L23.0642 16.2483C23.163 16.347 23.2414 16.4641 23.2949 16.5931C23.3483 16.7221 23.3758 16.8604 23.3758 17C23.3758 17.1396 23.3483 17.2779 23.2949 17.4069C23.2414 17.5359 23.163 17.653 23.0642 17.7517Z" fill="white"/>
</svg>
