<svg width="34" height="34" viewBox="0 0 34 34" fill="none" xmlns="http://www.w3.org/2000/svg">
<path d="M17 3.1875C14.2682 3.1875 11.5976 3.99759 9.32619 5.51533C7.05474 7.03306 5.28436 9.19028 4.23892 11.7142C3.19348 14.2381 2.91995 17.0153 3.45291 19.6947C3.98587 22.374 5.30138 24.8352 7.23309 26.7669C9.16481 28.6986 11.626 30.0141 14.3053 30.5471C16.9847 31.0801 19.7619 30.8065 22.2858 29.7611C24.8097 28.7156 26.9669 26.9453 28.4847 24.6738C30.0024 22.4024 30.8125 19.7319 30.8125 17C30.8086 13.3379 29.3522 9.82687 26.7626 7.23736C24.1731 4.64785 20.6621 3.19137 17 3.1875ZM22.3125 18.0625H14.2521L16.6892 20.4983C16.7879 20.597 16.8662 20.7142 16.9197 20.8432C16.9731 20.9722 17.0006 21.1104 17.0006 21.25C17.0006 21.3896 16.9731 21.5278 16.9197 21.6568C16.8662 21.7858 16.7879 21.903 16.6892 22.0017C16.5905 22.1004 16.4733 22.1787 16.3443 22.2322C16.2154 22.2856 16.0771 22.3131 15.9375 22.3131C15.7979 22.3131 15.6597 22.2856 15.5307 22.2322C15.4017 22.1787 15.2845 22.1004 15.1858 22.0017L10.9358 17.7517C10.837 17.653 10.7586 17.5359 10.7052 17.4069C10.6517 17.2779 10.6242 17.1396 10.6242 17C10.6242 16.8604 10.6517 16.7221 10.7052 16.5931C10.7586 16.4641 10.837 16.347 10.9358 16.2483L15.1858 11.9983C15.3852 11.7989 15.6556 11.6869 15.9375 11.6869C16.2195 11.6869 16.4899 11.7989 16.6892 11.9983C16.8886 12.1976 17.0006 12.4681 17.0006 12.75C17.0006 13.0319 16.8886 13.3024 16.6892 13.5017L14.2521 15.9375H22.3125C22.5943 15.9375 22.8646 16.0494 23.0638 16.2487C23.2631 16.448 23.375 16.7182 23.375 17C23.375 17.2818 23.2631 17.552 23.0638 17.7513C22.8646 17.9506 22.5943 18.0625 22.3125 18.0625Z" fill="#023F5B"/>
</svg>
