<svg width="238" height="238" viewBox="0 0 238 238" fill="none" xmlns="http://www.w3.org/2000/svg">
<path d="M54.0529 19.3113C-1.00087 55.1714 -16.5661 128.893 19.2939 183.947C55.1539 239.001 128.876 254.566 183.93 218.706C239.009 182.846 254.574 109.124 218.689 54.0702C182.829 -1.00857 109.107 -16.5737 54.0529 19.3113ZM166.237 88.2536C183.229 114.329 175.847 149.263 149.771 166.255C123.696 183.246 88.7617 175.864 71.7701 149.789C54.7785 123.713 62.1608 88.7792 88.2362 71.7876C114.312 54.796 149.246 62.1782 166.237 88.2536Z" fill="white"/>
<path d="M166.24 88.2519C162.586 82.6464 158.107 77.9168 153.052 74.088L191.039 24.2644C201.624 32.3223 211.033 42.282 218.716 54.0685C226.398 65.855 231.704 78.4924 234.782 91.43L173.872 106.019C172.421 99.8632 169.893 93.8324 166.24 88.2269" fill="#EA5E65"/>
<path d="M71.7704 149.763C75.4239 155.369 79.9034 160.124 84.9583 163.927L46.9712 213.751C36.3859 205.693 26.9767 195.733 19.2942 183.947C11.6117 172.16 6.30652 159.523 3.22852 146.585L64.1379 131.996C65.5893 138.152 68.1168 144.183 71.7704 149.788" fill="#EA5E65"/>
<path d="M88.2356 71.7868C82.6301 75.4404 77.8755 79.9198 74.0718 84.9747L24.248 46.9876C32.3059 36.4023 42.2657 26.9931 54.0522 19.3106C65.8388 11.6281 78.4761 6.32288 91.4137 3.24487L106.003 64.1543C99.847 65.6057 93.816 68.1333 88.2105 71.7868" fill="#EA5E65"/>
<path d="M149.769 166.231C155.375 162.577 160.129 158.098 163.933 153.043L213.757 191.03C205.699 201.616 195.739 211.025 183.953 218.707C172.166 226.39 159.529 231.695 146.591 234.773L132.002 173.864C138.158 172.412 144.189 169.885 149.794 166.231" fill="#EA5E65"/>
<path d="M63.0862 111.977L1.70117 99.0143C2.22669 95.9363 2.87737 92.9083 3.6281 89.8804L65.0131 102.843C64.1123 105.821 63.4866 108.874 63.0862 111.977Z" fill="#77D2FC"/>
<path d="M174.921 126.041L236.306 139.003C235.781 142.081 235.13 145.109 234.379 148.137L172.994 135.175C173.895 132.197 174.521 129.144 174.921 126.041Z" fill="#77D2FC"/>
<path d="M126.047 63.1032L139.01 1.71826C142.088 2.24378 145.116 2.89438 148.144 3.64512L135.181 65.0301C132.203 64.1292 129.15 63.5036 126.047 63.1032Z" fill="#77D2FC"/>
<path d="M111.96 174.912L98.9971 236.297C95.9191 235.771 92.8912 235.121 89.8633 234.37L102.826 172.985C105.804 173.886 108.857 174.512 111.96 174.912Z" fill="#77D2FC"/>
<path opacity="0.2" d="M80.9052 60.5278C48.5986 81.5734 39.4646 124.816 60.5102 157.122C81.5558 189.429 124.798 198.563 157.105 177.517C189.411 156.472 198.545 113.229 177.499 80.9227C156.454 48.6162 113.212 39.4822 80.9052 60.5278ZM166.238 88.2549C183.23 114.33 175.848 149.264 149.773 166.256C123.697 183.248 88.7628 175.865 71.7712 149.79C54.7796 123.714 62.1619 88.7804 88.2373 71.7888C114.313 54.7972 149.247 62.1794 166.238 88.2549Z" fill="#364B5F"/>
</svg>
