<svg width="21" height="22" viewBox="0 0 21 22" fill="none" xmlns="http://www.w3.org/2000/svg">
<path d="M20.2871 10.7342C20.2584 10.6694 19.5636 9.12805 18.019 7.5834C15.9608 5.52523 13.3612 4.4375 10.5 4.4375C7.63874 4.4375 5.03917 5.52523 2.98101 7.5834C1.43636 9.12805 0.738273 10.6719 0.712844 10.7342C0.67553 10.8181 0.65625 10.909 0.65625 11.0008C0.65625 11.0927 0.67553 11.1835 0.712844 11.2674C0.741555 11.3322 1.43636 12.8728 2.98101 14.4174C5.03917 16.4748 7.63874 17.5625 10.5 17.5625C13.3612 17.5625 15.9608 16.4748 18.019 14.4174C19.5636 12.8728 20.2584 11.3322 20.2871 11.2674C20.3245 11.1835 20.3437 11.0927 20.3437 11.0008C20.3437 10.909 20.3245 10.8181 20.2871 10.7342ZM10.5 14.2812C9.85102 14.2812 9.21663 14.0888 8.67703 13.7283C8.13743 13.3677 7.71686 12.8553 7.46851 12.2557C7.22016 11.6561 7.15518 10.9964 7.28179 10.3599C7.4084 9.72336 7.72091 9.1387 8.1798 8.67981C8.63869 8.22091 9.22335 7.90841 9.85985 7.7818C10.4964 7.65519 11.1561 7.72017 11.7557 7.96852C12.3552 8.21687 12.8677 8.63744 13.2283 9.17704C13.5888 9.71663 13.7812 10.351 13.7812 11C13.7812 11.8702 13.4355 12.7048 12.8202 13.3202C12.2048 13.9355 11.3702 14.2812 10.5 14.2812Z" fill="#333333"/>
</svg>
