<svg width="24" height="24" viewBox="0 0 24 24" fill="none" xmlns="http://www.w3.org/2000/svg">
<path d="M21 20.25C21 20.449 20.921 20.6397 20.7803 20.7804C20.6397 20.921 20.4489 21 20.25 21H3.75C3.55109 21 3.36032 20.921 3.21967 20.7804C3.07902 20.6397 3 20.449 3 20.25C3 20.0511 3.07902 19.8604 3.21967 19.7197C3.36032 19.5791 3.55109 19.5 3.75 19.5H11.25V12.6957C9.93631 12.506 8.7432 11.8259 7.91078 10.792C7.07836 9.75821 6.66843 8.44744 6.76348 7.12355C6.85853 5.79965 7.45151 4.56089 8.42308 3.65658C9.39465 2.75226 10.6727 2.24951 12 2.24951C13.3273 2.24951 14.6053 2.75226 15.5769 3.65658C16.5485 4.56089 17.1415 5.79965 17.2365 7.12355C17.3316 8.44744 16.9216 9.75821 16.0892 10.792C15.2568 11.8259 14.0637 12.506 12.75 12.6957V19.5H20.25C20.4489 19.5 20.6397 19.5791 20.7803 19.7197C20.921 19.8604 21 20.0511 21 20.25Z" fill="#333333"/>
</svg>
