<svg width="24" height="24" viewBox="0 0 24 24" fill="none" xmlns="http://www.w3.org/2000/svg">
<path d="M13.4996 6.75C13.4996 6.15666 13.6756 5.57664 14.0052 5.08329C14.3348 4.58994 14.8034 4.20543 15.3516 3.97836C15.8997 3.7513 16.5029 3.69189 17.0849 3.80765C17.6668 3.9234 18.2014 4.20912 18.6209 4.62868C19.0405 5.04824 19.3262 5.58279 19.442 6.16473C19.5577 6.74667 19.4983 7.34987 19.2712 7.89805C19.0442 8.44623 18.6597 8.91477 18.1663 9.24441C17.673 9.57405 17.093 9.75 16.4996 9.75C15.704 9.75 14.9409 9.43393 14.3783 8.87132C13.8157 8.30871 13.4996 7.54565 13.4996 6.75ZM19.7705 17.2678C16.7865 19.7419 14.7343 18.6281 12.3577 17.3372C9.86305 15.9834 7.03648 14.4488 3.27054 17.5706C3.1939 17.6333 3.13041 17.7104 3.08373 17.7977C3.03706 17.885 3.00813 17.9807 2.9986 18.0792C2.98907 18.1777 2.99914 18.2772 3.02823 18.3718C3.05731 18.4664 3.10484 18.5543 3.16807 18.6305C3.2313 18.7066 3.30897 18.7695 3.39662 18.8155C3.48427 18.8615 3.58015 18.8897 3.67875 18.8984C3.77734 18.9072 3.87669 18.8964 3.97108 18.8665C4.06546 18.8367 4.15301 18.7885 4.22867 18.7247C7.21273 16.2506 9.26492 17.3653 11.6415 18.6553C13.058 19.4241 14.5805 20.2491 16.3224 20.2491C17.648 20.2491 19.1012 19.77 20.7287 18.4209C20.8818 18.2939 20.9782 18.1112 20.9967 17.913C21.0152 17.7149 20.9542 17.5175 20.8271 17.3644C20.7001 17.2112 20.5174 17.1148 20.3192 17.0963C20.1211 17.0779 19.9237 17.1389 19.7705 17.2659V17.2678ZM3.27054 13.8216C3.1939 13.8842 3.13041 13.9614 3.08373 14.0487C3.03706 14.136 3.00813 14.2316 2.9986 14.3301C2.98907 14.4287 2.99914 14.5281 3.02823 14.6227C3.05731 14.7173 3.10484 14.8052 3.16807 14.8814C3.2313 14.9576 3.30897 15.0204 3.39662 15.0664C3.48427 15.1124 3.58015 15.1406 3.67875 15.1494C3.77734 15.1581 3.87669 15.1473 3.97108 15.1175C4.06546 15.0877 4.15301 15.0394 4.22867 14.9756C7.21273 12.5025 9.26492 13.6163 11.6415 14.9063C13.058 15.675 14.5805 16.5 16.3224 16.5C17.648 16.5 19.1012 16.0209 20.7287 14.6719C20.8053 14.6092 20.8688 14.5321 20.9155 14.4448C20.9622 14.3575 20.9911 14.2618 21.0006 14.1633C21.0101 14.0648 21.0001 13.9653 20.971 13.8707C20.9419 13.7761 20.8944 13.6882 20.8311 13.612C20.7679 13.5359 20.6902 13.473 20.6026 13.427C20.5149 13.381 20.4191 13.3528 20.3205 13.3441C20.2219 13.3353 20.1225 13.3461 20.0281 13.376C19.9338 13.4058 19.8462 13.454 19.7705 13.5178C19.2283 13.9835 18.619 14.3646 17.963 14.6484L12.9155 9.60281C12.0121 8.69532 10.9377 7.97593 9.75444 7.48626C8.57121 6.99659 7.30265 6.74634 6.02211 6.75H3.74961C3.5507 6.75 3.35993 6.82902 3.21928 6.96967C3.07863 7.11032 2.99961 7.30109 2.99961 7.5C2.99961 7.69891 3.07863 7.88968 3.21928 8.03033C3.35993 8.17098 3.5507 8.25 3.74961 8.25H6.02211C7.39294 8.24737 8.74266 8.5877 9.94836 9.24L7.17054 12.0159C5.98273 12.1275 4.69367 12.6413 3.27054 13.8206V13.8216Z" fill="#333333"/>
</svg>
