<svg width="24" height="24" viewBox="0 0 24 24" fill="none" xmlns="http://www.w3.org/2000/svg">
<path d="M14.3044 13.6152L16.4606 14.6915C16.3584 15.2022 16.0822 15.6616 15.679 15.9914C15.2759 16.3212 14.7708 16.5009 14.25 16.4999C12.4604 16.4979 10.7447 15.7861 9.47922 14.5207C8.21378 13.2552 7.50198 11.5395 7.5 9.74991C7.49985 9.22971 7.67997 8.72553 8.00968 8.32316C8.3394 7.9208 8.79835 7.64512 9.30844 7.54303L10.3847 9.69928L9.46875 11.0624C9.40031 11.1651 9.35825 11.283 9.34631 11.4059C9.33437 11.5287 9.35292 11.6525 9.40031 11.7665C9.93692 13.0418 10.9515 14.0564 12.2269 14.593C12.3411 14.6425 12.466 14.6628 12.59 14.652C12.7141 14.6412 12.8335 14.5997 12.9375 14.5312L14.3044 13.6152ZM21.75 11.9999C21.7504 13.6832 21.3149 15.338 20.486 16.803C19.6572 18.2681 18.4631 19.4937 17.02 20.3604C15.577 21.2271 13.9341 21.7054 12.2514 21.7488C10.5686 21.7922 8.9033 21.3992 7.4175 20.608L4.22531 21.6721C3.96102 21.7602 3.6774 21.773 3.40624 21.709C3.13509 21.645 2.88711 21.5068 2.69011 21.3098C2.49311 21.1128 2.35486 20.8648 2.29087 20.5937C2.22688 20.3225 2.23967 20.0389 2.32781 19.7746L3.39187 16.5824C2.69639 15.2748 2.30793 13.826 2.256 12.3458C2.20406 10.8657 2.49001 9.39316 3.09213 8.04003C3.69425 6.6869 4.59672 5.48873 5.73105 4.53646C6.86537 3.58419 8.20173 2.90285 9.63869 2.54416C11.0756 2.18548 12.5754 2.15886 14.0242 2.46635C15.473 2.77383 16.8327 3.40733 18.0001 4.31875C19.1675 5.23018 20.1119 6.39558 20.7616 7.7265C21.4114 9.05741 21.7494 10.5189 21.75 11.9999ZM18 14.2499C18.0001 14.1106 17.9614 13.974 17.8882 13.8554C17.815 13.7368 17.7102 13.641 17.5856 13.5787L14.5856 12.0787C14.4675 12.0198 14.336 11.9932 14.2043 12.0014C14.0726 12.0096 13.9455 12.0524 13.8356 12.1255L12.4584 13.0443C11.8262 12.6967 11.306 12.1765 10.9584 11.5443L11.8772 10.1671C11.9503 10.0573 11.9931 9.93007 12.0013 9.79839C12.0096 9.66671 11.9829 9.53518 11.9241 9.41709L10.4241 6.41709C10.3619 6.29154 10.2658 6.1859 10.1467 6.11217C10.0275 6.03843 9.89011 5.99954 9.75 5.99991C8.75544 5.99991 7.80161 6.395 7.09835 7.09826C6.39509 7.80152 6 8.75535 6 9.74991C6.00248 11.9372 6.87247 14.0342 8.41911 15.5808C9.96575 17.1274 12.0627 17.9974 14.25 17.9999C14.7425 17.9999 15.2301 17.9029 15.6851 17.7145C16.14 17.526 16.5534 17.2498 16.9017 16.9016C17.2499 16.5533 17.5261 16.1399 17.7145 15.685C17.903 15.23 18 14.7424 18 14.2499Z" fill="white"/>
</svg>
